<svg xmlns="http://www.w3.org/2000/svg" width="592.745" height="49.209" viewBox="0 0 592.745 49.209">
  <g id="그룹_139" data-name="그룹 139" transform="translate(-124.37 -190.999)">
    <path id="패스_117" data-name="패스 117" d="M246.089,3292.048l.03-.02-16.1-24.589-2.8,1.831,1.878,2.868H124.37l13.041,19.956h0L124.37,3312.05H229.154l-1.786,2.8,2.819,1.8,4.45-6.987,11.481-17.568Z" transform="translate(0 -3076.441)" fill="#e1a61e"/>
    <path id="패스_118" data-name="패스 118" d="M363.838,3292.048l.03-.02-16.1-24.589-2.8,1.831,1.878,2.868H242.119l13.041,19.956h0l-13.041,19.956H346.9l-1.786,2.8,2.819,1.8,4.45-6.987,11.481-17.568Z" transform="translate(0 -3076.441)" fill="#ca4740"/>
    <path id="패스_119" data-name="패스 119" d="M481.587,3292.048l.03-.02-16.1-24.589-2.8,1.831,1.878,2.868H359.868l13.041,19.956h0l-13.041,19.956H464.652l-1.786,2.8,2.819,1.8,4.45-6.987,11.481-17.568Z" transform="translate(0 -3076.441)" fill="#535b95"/>
    <path id="패스_120" data-name="패스 120" d="M599.336,3292.048l.03-.02-16.1-24.589-2.8,1.831,1.878,2.868H477.617l13.041,19.956h0l-13.041,19.956H582.4l-1.786,2.8,2.819,1.8,4.45-6.987,11.481-17.568Z" transform="translate(0 -3076.441)" fill="#0088ce"/>
    <path id="패스_121" data-name="패스 121" d="M717.085,3292.048l.03-.02-16.1-24.589-2.8,1.831,1.878,2.868H595.366l13.041,19.956h0l-13.041,19.956H700.15l-1.786,2.8,2.819,1.8,4.45-6.987,11.481-17.568Z" transform="translate(0 -3076.441)" fill="#1a9887"/>
    <text id="셀레니움_실행" data-name="셀레니움 실행" transform="translate(152.065 218.94)" fill="#fff" font-size="12" font-family="NanumBarunGothicBold, NanumBarunGothic"><tspan x="0" y="0">셀레니움 실행</tspan></text>
    <text id="로그인_" data-name="로그인   " transform="translate(285.237 218.94)" fill="#fff" font-size="12" font-family="NanumBarunGothicBold, NanumBarunGothic"><tspan x="0" y="0" xml:space="preserve">로그인   </tspan></text>
    <text id="포인트_사용" data-name="포인트 사용" transform="translate(512.221 218.94)" fill="#fff" font-size="12" font-family="NanumBarunGothicBold, NanumBarunGothic"><tspan x="0" y="0">포인트 사용</tspan></text>
    <text id="상품_선택" data-name="상품 선택" transform="translate(396.648 218.941)" fill="#fff" font-size="12" font-family="NanumBarunGothicBold, NanumBarunGothic"><tspan x="0" y="0">상품 선택</tspan></text>
    <text id="결제완료_" data-name="결제완료!" transform="translate(631.224 218.941)" fill="#fff" font-size="12" font-family="NanumBarunGothicBold, NanumBarunGothic"><tspan x="0" y="0">결제완료!</tspan></text>
  </g>
</svg>
